<?xml version="1.0" encoding="UTF-8"?>
<!DOCTYPE svg PUBLIC "-//W3C//DTD SVG 1.1//EN" "http://www.w3.org/Graphics/SVG/1.1/DTD/svg11.dtd">
<!-- Creator: CorelDRAW 2019 (64-Bit) -->
<svg xmlns="http://www.w3.org/2000/svg" xml:space="preserve" width="300px" height="300px" version="1.1" style="shape-rendering:geometricPrecision; text-rendering:geometricPrecision; image-rendering:optimizeQuality; fill-rule:evenodd; clip-rule:evenodd"
viewBox="0 0 66.73 66.73"
 xmlns:xlink="http://www.w3.org/1999/xlink">
 <defs>
  <style type="text/css">
   <![CDATA[
    .fil0 {fill:white}
   ]]>
  </style>
 </defs>
 <g id="Capa_x0020_1">
  <metadata id="CorelCorpID_0Corel-Layer"/>
  <path class="fil0" d="M65.16 25.77l-5.13 -1.12c-0.44,-1.36 -0.99,-2.69 -1.65,-3.98l2.84 -4.41c0.51,-0.79 0.4,-1.83 -0.26,-2.49l-8 -7.99c-0.66,-0.67 -1.69,-0.78 -2.48,-0.27l-4.42 2.84c-1.28,-0.65 -2.61,-1.2 -3.98,-1.65l-1.12 -5.13c-0.19,-0.92 -1.01,-1.57 -1.94,-1.57l-11.3 0c-0.94,0 -1.75,0.65 -1.95,1.57l-1.12 5.13c-1.36,0.45 -2.69,1 -3.98,1.65l-4.41 -2.84c-0.79,-0.51 -1.83,-0.4 -2.49,0.27l-7.99 7.99c-0.67,0.66 -0.78,1.7 -0.27,2.49l2.84 4.41c-0.65,1.29 -1.2,2.62 -1.65,3.98l-5.13 1.12c-0.92,0.2 -1.57,1.01 -1.57,1.95l0 11.3c0,0.93 0.65,1.75 1.57,1.94l5.13 1.12c0.45,1.37 1,2.7 1.65,3.98l-2.84 4.42c-0.51,0.79 -0.4,1.82 0.27,2.48l7.99 8c0.66,0.66 1.7,0.77 2.49,0.26l4.41 -2.84c1.29,0.66 2.62,1.21 3.98,1.65l1.12 5.13c0.2,0.92 1.01,1.57 1.95,1.57l11.3 0c0.93,0 1.75,-0.65 1.94,-1.57l1.12 -5.13c1.37,-0.44 2.7,-0.99 3.98,-1.65l4.42 2.84c0.79,0.51 1.82,0.4 2.48,-0.27l8 -7.99c0.66,-0.66 0.77,-1.69 0.26,-2.48l-2.84 -4.42c0.66,-1.28 1.21,-2.62 1.65,-3.98l5.13 -1.12c0.92,-0.19 1.57,-1.01 1.57,-1.94l0 -11.3c0,-0.94 -0.65,-1.75 -1.57,-1.95l0 0zm-19.83 7.6c0,6.59 -5.37,11.96 -11.96,11.96 -6.6,0 -11.97,-5.37 -11.97,-11.96 0,-6.6 5.37,-11.97 11.97,-11.97 6.59,0 11.96,5.37 11.96,11.97zm0 0z"/>
 </g>
</svg>
