<?xml version="1.0" encoding="UTF-8"?>
<!DOCTYPE svg PUBLIC "-//W3C//DTD SVG 1.1//EN" "http://www.w3.org/Graphics/SVG/1.1/DTD/svg11.dtd">
<!-- Creator: CorelDRAW 2019 (64-Bit) -->
<svg xmlns="http://www.w3.org/2000/svg" xml:space="preserve" width="300px" height="300px" version="1.1" style="shape-rendering:geometricPrecision; text-rendering:geometricPrecision; image-rendering:optimizeQuality; fill-rule:evenodd; clip-rule:evenodd"
viewBox="0 0 15.37 15.37"
 xmlns:xlink="http://www.w3.org/1999/xlink">
 <defs>
  <style type="text/css">
   <![CDATA[
    .fil0 {fill:white}
   ]]>
  </style>
 </defs>
 <g id="Capa_x0020_1">
  <metadata id="CorelCorpID_0Corel-Layer"/>
  <path class="fil0" d="M14.96 6.69c0,0 0,0 0,0l-6.27 -6.28c-0.27,-0.26 -0.63,-0.41 -1,-0.41 -0.38,0 -0.74,0.15 -1.01,0.41l-6.26 6.27c0,0 -0.01,0.01 -0.01,0.01 -0.55,0.55 -0.55,1.45 0,2 0.26,0.25 0.59,0.39 0.94,0.41 0.02,0 0.03,0 0.05,0l0.25 0 0 4.62c0,0.91 0.74,1.65 1.65,1.65l2.46 0c0.24,0 0.45,-0.2 0.45,-0.45l0 -3.62c0,-0.41 0.34,-0.75 0.75,-0.75l1.45 0c0.42,0 0.75,0.34 0.75,0.75l0 3.62c0,0.25 0.21,0.45 0.46,0.45l2.45 0c0.91,0 1.66,-0.74 1.66,-1.65l0 -4.62 0.23 0c0.37,0 0.73,-0.15 1,-0.41 0.55,-0.55 0.55,-1.45 0,-2zm0 0z"/>
 </g>
</svg>
