<?xml version="1.0" encoding="UTF-8"?>
<!DOCTYPE svg PUBLIC "-//W3C//DTD SVG 1.1//EN" "http://www.w3.org/Graphics/SVG/1.1/DTD/svg11.dtd">
<!-- Creator: CorelDRAW 2019 (64-Bit) -->
<svg xmlns="http://www.w3.org/2000/svg" xml:space="preserve" width="300px" height="300px" version="1.1" style="shape-rendering:geometricPrecision; text-rendering:geometricPrecision; image-rendering:optimizeQuality; fill-rule:evenodd; clip-rule:evenodd"
viewBox="0 0 220.77 220.77"
 xmlns:xlink="http://www.w3.org/1999/xlink">
 <defs>
  <style type="text/css">
   <![CDATA[
    .fil0 {fill:white}
   ]]>
  </style>
 </defs>
 <g id="Capa_x0020_1">
  <metadata id="CorelCorpID_0Corel-Layer"/>
  <path class="fil0" d="M203.25 21.6c-11.42,-13.93 -27.1,-21.6 -44.15,-21.6 -12.75,0 -24.42,4.53 -34.69,13.46 -5.19,4.51 -9.88,10.02 -14.03,16.46 -4.14,-6.44 -8.83,-11.95 -14.02,-16.46 -10.27,-8.93 -21.94,-13.46 -34.69,-13.46 -17.05,0 -32.73,7.67 -44.16,21.6 -11.29,13.77 -17.51,32.58 -17.51,52.97 0,20.99 6.96,40.2 21.9,60.46 13.36,18.12 32.57,36.52 54.81,57.83 7.59,7.27 16.2,15.52 25.14,24.3 2.36,2.33 5.39,3.61 8.53,3.61 3.14,0 6.18,-1.28 8.54,-3.6 8.93,-8.79 17.55,-17.04 25.15,-24.32 22.23,-21.3 41.44,-39.7 54.8,-57.82 14.94,-20.26 21.9,-39.47 21.9,-60.46 0,-20.38 -6.22,-39.2 -17.52,-52.96l0 -0.01zm0 0z"/>
 </g>
</svg>
