<?xml version="1.0" encoding="UTF-8"?>
<!DOCTYPE svg PUBLIC "-//W3C//DTD SVG 1.1//EN" "http://www.w3.org/Graphics/SVG/1.1/DTD/svg11.dtd">
<!-- Creator: CorelDRAW 2019 (64-Bit) -->
<svg xmlns="http://www.w3.org/2000/svg" xml:space="preserve" width="300px" height="437px" version="1.1" style="shape-rendering:geometricPrecision; text-rendering:geometricPrecision; image-rendering:optimizeQuality; fill-rule:evenodd; clip-rule:evenodd"
viewBox="0 0 7.94 11.57"
 xmlns:xlink="http://www.w3.org/1999/xlink">
 <defs>
  <style type="text/css">
   <![CDATA[
    .fil0 {fill:white}
   ]]>
  </style>
 </defs>
 <g id="Capa_x0020_1">
  <metadata id="CorelCorpID_0Corel-Layer"/>
  <path class="fil0" d="M6.44 3c-0.08,-0.13 -0.24,-0.19 -0.38,-0.15 -0.15,0.04 -0.25,0.18 -0.25,0.33 0,0.41 -0.34,0.75 -0.75,0.75 -0.41,0 -0.75,-0.34 -0.75,-0.75l0 -2.84c0,-0.14 -0.08,-0.26 -0.21,-0.31 -0.13,-0.06 -0.27,-0.03 -0.37,0.07 -0.04,0.04 -0.94,0.95 -1.86,2.32 -0.54,0.81 -0.97,1.61 -1.28,2.39 -0.39,0.98 -0.59,1.92 -0.59,2.79 0,2.19 1.78,3.97 3.97,3.97 2.19,0 3.97,-1.78 3.97,-3.97 0,-1.4 -0.51,-2.95 -1.5,-4.6l0 0zm-0.21 4.51c0,0.19 -0.15,0.34 -0.34,0.34 -0.18,0 -0.34,-0.15 -0.34,-0.34l0 -0.63 -1.68 1.69c-0.07,0.06 -0.15,0.1 -0.24,0.1 -0.09,0 -0.18,-0.04 -0.24,-0.1l-0.79 -0.79 -0.53 0.53c-0.13,0.13 -0.35,0.13 -0.48,0 -0.13,-0.13 -0.13,-0.35 0,-0.48l0.77 -0.77c0.13,-0.13 0.35,-0.13 0.48,0l0.79 0.79 1.44 -1.45 -0.63 0c-0.19,0 -0.34,-0.15 -0.34,-0.34 0,-0.19 0.15,-0.34 0.34,-0.34l1.45 0c0.19,0 0.34,0.15 0.34,0.34l0 1.45 0 0zm0 0z"/>
 </g>
</svg>
